<svg xmlns="http://www.w3.org/2000/svg" viewBox="0 0 64 64" role="img" aria-label="Tortica favicon">
  <defs>
    <linearGradient id="bg" x1="0" y1="0" x2="1" y2="1">
      <stop offset="0" stop-color="#ffe6ec" />
      <stop offset="1" stop-color="#ffd0db" />
    </linearGradient>
    <linearGradient id="cake" x1="0" y1="0" x2="0" y2="1">
      <stop offset="0" stop-color="#fff6e7" />
      <stop offset="1" stop-color="#f8d7a6" />
    </linearGradient>
    <linearGradient id="frosting" x1="0" y1="0" x2="1" y2="0">
      <stop offset="0" stop-color="#ffffff" />
      <stop offset="1" stop-color="#ffeef5" />
    </linearGradient>
  </defs>
  <circle cx="32" cy="32" r="30" fill="url(#bg)" />
  <ellipse cx="32" cy="48" rx="20" ry="4.5" fill="#e5aab8" opacity="0.35" />
  <rect x="16" y="26" width="32" height="22" rx="6" fill="url(#cake)" stroke="#d29a6a" stroke-width="1.5" />
  <path d="M16 28c3 0 3 3 6 3s3-3 6-3 3 3 6 3 3-3 6-3 3 3 6 3 3-3 6-3v8H16z" fill="url(#frosting)" />
  <circle cx="24" cy="22.5" r="2.1" fill="#ff6b98" />
  <circle cx="32" cy="21" r="2.1" fill="#ff8fab" />
  <circle cx="40" cy="22.5" r="2.1" fill="#ff6b98" />
  <rect x="30.8" y="15.5" width="2.4" height="7" rx="1.2" fill="#ff7b00" />
  <path d="M32 12.2c1.9 1.8 1.2 3.8 0 4.8-1.2-1-1.9-3 0-4.8z" fill="#ffd166" />
</svg>
